<mxfile host="app.diagrams.net" agent="Mozilla/5.0 (Windows NT 10.0; Win64; x64) AppleWebKit/537.36 (KHTML, like Gecko) Chrome/129.0.0.0 Safari/537.36" version="24.8.0">
  <diagram id="C5RBs43oDa-KdzZeNtuy" name="Page-1">
    <mxGraphModel dx="691" dy="422" grid="1" gridSize="10" guides="1" tooltips="1" connect="1" arrows="1" fold="1" page="1" pageScale="1" pageWidth="827" pageHeight="1169" math="0" shadow="0">
      <root>
        <mxCell id="WIyWlLk6GJQsqaUBKTNV-0" />
        <mxCell id="WIyWlLk6GJQsqaUBKTNV-1" parent="WIyWlLk6GJQsqaUBKTNV-0" />
        <mxCell id="5TJ3Xv7iPEo6rqyS3TOC-2" style="edgeStyle=orthogonalEdgeStyle;rounded=0;orthogonalLoop=1;jettySize=auto;html=1;" edge="1" parent="WIyWlLk6GJQsqaUBKTNV-1" source="5TJ3Xv7iPEo6rqyS3TOC-0" target="5TJ3Xv7iPEo6rqyS3TOC-1">
          <mxGeometry relative="1" as="geometry" />
        </mxCell>
        <mxCell id="5TJ3Xv7iPEo6rqyS3TOC-0" value="START" style="ellipse;whiteSpace=wrap;html=1;" vertex="1" parent="WIyWlLk6GJQsqaUBKTNV-1">
          <mxGeometry x="320" y="40" width="120" height="80" as="geometry" />
        </mxCell>
        <mxCell id="5TJ3Xv7iPEo6rqyS3TOC-5" style="edgeStyle=orthogonalEdgeStyle;rounded=0;orthogonalLoop=1;jettySize=auto;html=1;exitX=0.5;exitY=1;exitDx=0;exitDy=0;entryX=0.5;entryY=0;entryDx=0;entryDy=0;" edge="1" parent="WIyWlLk6GJQsqaUBKTNV-1" source="5TJ3Xv7iPEo6rqyS3TOC-1" target="5TJ3Xv7iPEo6rqyS3TOC-4">
          <mxGeometry relative="1" as="geometry" />
        </mxCell>
        <mxCell id="5TJ3Xv7iPEo6rqyS3TOC-1" value="Wczytaj: a,b,c" style="shape=parallelogram;perimeter=parallelogramPerimeter;whiteSpace=wrap;html=1;fixedSize=1;" vertex="1" parent="WIyWlLk6GJQsqaUBKTNV-1">
          <mxGeometry x="320" y="200" width="120" height="60" as="geometry" />
        </mxCell>
        <mxCell id="5TJ3Xv7iPEo6rqyS3TOC-7" style="edgeStyle=orthogonalEdgeStyle;rounded=0;orthogonalLoop=1;jettySize=auto;html=1;entryX=0.5;entryY=0;entryDx=0;entryDy=0;" edge="1" parent="WIyWlLk6GJQsqaUBKTNV-1" source="5TJ3Xv7iPEo6rqyS3TOC-4" target="5TJ3Xv7iPEo6rqyS3TOC-6">
          <mxGeometry relative="1" as="geometry" />
        </mxCell>
        <mxCell id="5TJ3Xv7iPEo6rqyS3TOC-4" value="Oblicz:&lt;div&gt;delta = b**2 - 4 * a * c&lt;/div&gt;" style="rounded=0;whiteSpace=wrap;html=1;" vertex="1" parent="WIyWlLk6GJQsqaUBKTNV-1">
          <mxGeometry x="320" y="340" width="120" height="60" as="geometry" />
        </mxCell>
        <mxCell id="5TJ3Xv7iPEo6rqyS3TOC-9" style="edgeStyle=orthogonalEdgeStyle;rounded=0;orthogonalLoop=1;jettySize=auto;html=1;entryX=0.5;entryY=0;entryDx=0;entryDy=0;" edge="1" parent="WIyWlLk6GJQsqaUBKTNV-1" source="5TJ3Xv7iPEo6rqyS3TOC-6" target="5TJ3Xv7iPEo6rqyS3TOC-8">
          <mxGeometry relative="1" as="geometry" />
        </mxCell>
        <mxCell id="5TJ3Xv7iPEo6rqyS3TOC-20" style="edgeStyle=orthogonalEdgeStyle;rounded=0;orthogonalLoop=1;jettySize=auto;html=1;entryX=0.5;entryY=0;entryDx=0;entryDy=0;" edge="1" parent="WIyWlLk6GJQsqaUBKTNV-1" source="5TJ3Xv7iPEo6rqyS3TOC-6" target="5TJ3Xv7iPEo6rqyS3TOC-19">
          <mxGeometry relative="1" as="geometry" />
        </mxCell>
        <mxCell id="5TJ3Xv7iPEo6rqyS3TOC-6" value="Jeśli&amp;nbsp;&lt;div&gt;delta &amp;gt; 0&lt;/div&gt;" style="rhombus;whiteSpace=wrap;html=1;" vertex="1" parent="WIyWlLk6GJQsqaUBKTNV-1">
          <mxGeometry x="340" y="480" width="80" height="80" as="geometry" />
        </mxCell>
        <mxCell id="5TJ3Xv7iPEo6rqyS3TOC-27" style="edgeStyle=orthogonalEdgeStyle;rounded=0;orthogonalLoop=1;jettySize=auto;html=1;exitX=0;exitY=0.5;exitDx=0;exitDy=0;entryX=0.5;entryY=0;entryDx=0;entryDy=0;" edge="1" parent="WIyWlLk6GJQsqaUBKTNV-1" source="5TJ3Xv7iPEo6rqyS3TOC-8" target="5TJ3Xv7iPEo6rqyS3TOC-13">
          <mxGeometry relative="1" as="geometry">
            <Array as="points">
              <mxPoint x="380" y="640" />
              <mxPoint x="380" y="720" />
            </Array>
          </mxGeometry>
        </mxCell>
        <mxCell id="5TJ3Xv7iPEo6rqyS3TOC-30" style="edgeStyle=orthogonalEdgeStyle;rounded=0;orthogonalLoop=1;jettySize=auto;html=1;" edge="1" parent="WIyWlLk6GJQsqaUBKTNV-1" source="5TJ3Xv7iPEo6rqyS3TOC-8" target="5TJ3Xv7iPEo6rqyS3TOC-15">
          <mxGeometry relative="1" as="geometry">
            <mxPoint x="670" y="870" as="targetPoint" />
            <Array as="points">
              <mxPoint x="640" y="640" />
            </Array>
          </mxGeometry>
        </mxCell>
        <mxCell id="5TJ3Xv7iPEo6rqyS3TOC-8" value="Jeśli&lt;div&gt;delta == 0&lt;/div&gt;" style="rhombus;whiteSpace=wrap;html=1;" vertex="1" parent="WIyWlLk6GJQsqaUBKTNV-1">
          <mxGeometry x="500" y="600" width="80" height="80" as="geometry" />
        </mxCell>
        <mxCell id="5TJ3Xv7iPEo6rqyS3TOC-10" value="NIE" style="text;html=1;align=center;verticalAlign=middle;resizable=0;points=[];autosize=1;strokeColor=none;fillColor=none;" vertex="1" parent="WIyWlLk6GJQsqaUBKTNV-1">
          <mxGeometry x="420" y="488" width="40" height="30" as="geometry" />
        </mxCell>
        <mxCell id="5TJ3Xv7iPEo6rqyS3TOC-23" style="edgeStyle=orthogonalEdgeStyle;rounded=0;orthogonalLoop=1;jettySize=auto;html=1;" edge="1" parent="WIyWlLk6GJQsqaUBKTNV-1" source="5TJ3Xv7iPEo6rqyS3TOC-13" target="5TJ3Xv7iPEo6rqyS3TOC-22">
          <mxGeometry relative="1" as="geometry" />
        </mxCell>
        <mxCell id="5TJ3Xv7iPEo6rqyS3TOC-13" value="Oblicz x = -b/2*a" style="rounded=0;whiteSpace=wrap;html=1;" vertex="1" parent="WIyWlLk6GJQsqaUBKTNV-1">
          <mxGeometry x="320" y="720" width="120" height="60" as="geometry" />
        </mxCell>
        <mxCell id="5TJ3Xv7iPEo6rqyS3TOC-14" value="TAK" style="text;html=1;align=center;verticalAlign=middle;resizable=0;points=[];autosize=1;strokeColor=none;fillColor=none;" vertex="1" parent="WIyWlLk6GJQsqaUBKTNV-1">
          <mxGeometry x="460" y="615" width="50" height="30" as="geometry" />
        </mxCell>
        <mxCell id="5TJ3Xv7iPEo6rqyS3TOC-15" value="Drukuj:&amp;nbsp;&lt;div&gt;brak rozwiązań&lt;/div&gt;" style="shape=parallelogram;perimeter=parallelogramPerimeter;whiteSpace=wrap;html=1;fixedSize=1;" vertex="1" parent="WIyWlLk6GJQsqaUBKTNV-1">
          <mxGeometry x="490" y="880" width="120" height="60" as="geometry" />
        </mxCell>
        <mxCell id="5TJ3Xv7iPEo6rqyS3TOC-18" value="NIE" style="text;html=1;align=center;verticalAlign=middle;resizable=0;points=[];autosize=1;strokeColor=none;fillColor=none;" vertex="1" parent="WIyWlLk6GJQsqaUBKTNV-1">
          <mxGeometry x="580" y="615" width="40" height="30" as="geometry" />
        </mxCell>
        <mxCell id="5TJ3Xv7iPEo6rqyS3TOC-19" value="Oblicz:&lt;div&gt;x1 = [-b - sqrt(delta)]/(2*a)&lt;/div&gt;&lt;div&gt;x2 = [-b + sqrt(delta]/(2*a)&lt;/div&gt;" style="rounded=0;whiteSpace=wrap;html=1;" vertex="1" parent="WIyWlLk6GJQsqaUBKTNV-1">
          <mxGeometry x="150" y="600" width="140" height="60" as="geometry" />
        </mxCell>
        <mxCell id="5TJ3Xv7iPEo6rqyS3TOC-21" value="TAK" style="text;html=1;align=center;verticalAlign=middle;resizable=0;points=[];autosize=1;strokeColor=none;fillColor=none;" vertex="1" parent="WIyWlLk6GJQsqaUBKTNV-1">
          <mxGeometry x="290" y="488" width="50" height="30" as="geometry" />
        </mxCell>
        <mxCell id="5TJ3Xv7iPEo6rqyS3TOC-35" style="edgeStyle=orthogonalEdgeStyle;rounded=0;orthogonalLoop=1;jettySize=auto;html=1;" edge="1" parent="WIyWlLk6GJQsqaUBKTNV-1" source="5TJ3Xv7iPEo6rqyS3TOC-22" target="5TJ3Xv7iPEo6rqyS3TOC-33">
          <mxGeometry relative="1" as="geometry" />
        </mxCell>
        <mxCell id="5TJ3Xv7iPEo6rqyS3TOC-22" value="Drukuj x" style="shape=parallelogram;perimeter=parallelogramPerimeter;whiteSpace=wrap;html=1;fixedSize=1;" vertex="1" parent="WIyWlLk6GJQsqaUBKTNV-1">
          <mxGeometry x="320" y="880" width="120" height="60" as="geometry" />
        </mxCell>
        <mxCell id="5TJ3Xv7iPEo6rqyS3TOC-25" value="Drukuj x1, x2" style="shape=parallelogram;perimeter=parallelogramPerimeter;whiteSpace=wrap;html=1;fixedSize=1;" vertex="1" parent="WIyWlLk6GJQsqaUBKTNV-1">
          <mxGeometry x="150" y="880" width="120" height="60" as="geometry" />
        </mxCell>
        <mxCell id="5TJ3Xv7iPEo6rqyS3TOC-26" style="edgeStyle=orthogonalEdgeStyle;rounded=0;orthogonalLoop=1;jettySize=auto;html=1;entryX=0.583;entryY=0;entryDx=0;entryDy=0;entryPerimeter=0;" edge="1" parent="WIyWlLk6GJQsqaUBKTNV-1" source="5TJ3Xv7iPEo6rqyS3TOC-19" target="5TJ3Xv7iPEo6rqyS3TOC-25">
          <mxGeometry relative="1" as="geometry" />
        </mxCell>
        <mxCell id="5TJ3Xv7iPEo6rqyS3TOC-33" value="KONIEC" style="ellipse;whiteSpace=wrap;html=1;" vertex="1" parent="WIyWlLk6GJQsqaUBKTNV-1">
          <mxGeometry x="320" y="1060" width="120" height="80" as="geometry" />
        </mxCell>
        <mxCell id="5TJ3Xv7iPEo6rqyS3TOC-36" value="" style="endArrow=none;html=1;rounded=0;" edge="1" parent="WIyWlLk6GJQsqaUBKTNV-1">
          <mxGeometry width="50" height="50" relative="1" as="geometry">
            <mxPoint x="220" y="1000" as="sourcePoint" />
            <mxPoint x="220" y="940" as="targetPoint" />
          </mxGeometry>
        </mxCell>
        <mxCell id="5TJ3Xv7iPEo6rqyS3TOC-37" value="" style="endArrow=none;html=1;rounded=0;" edge="1" parent="WIyWlLk6GJQsqaUBKTNV-1">
          <mxGeometry width="50" height="50" relative="1" as="geometry">
            <mxPoint x="550" y="1000" as="sourcePoint" />
            <mxPoint x="550" y="940" as="targetPoint" />
          </mxGeometry>
        </mxCell>
        <mxCell id="5TJ3Xv7iPEo6rqyS3TOC-38" value="" style="endArrow=none;html=1;rounded=0;" edge="1" parent="WIyWlLk6GJQsqaUBKTNV-1" source="5TJ3Xv7iPEo6rqyS3TOC-44">
          <mxGeometry width="50" height="50" relative="1" as="geometry">
            <mxPoint x="220" y="1000" as="sourcePoint" />
            <mxPoint x="550" y="1000" as="targetPoint" />
            <Array as="points">
              <mxPoint x="380" y="1000" />
            </Array>
          </mxGeometry>
        </mxCell>
        <mxCell id="5TJ3Xv7iPEo6rqyS3TOC-47" value="" style="endArrow=none;html=1;rounded=0;" edge="1" parent="WIyWlLk6GJQsqaUBKTNV-1" target="5TJ3Xv7iPEo6rqyS3TOC-44">
          <mxGeometry width="50" height="50" relative="1" as="geometry">
            <mxPoint x="220" y="1000" as="sourcePoint" />
            <mxPoint x="550" y="1000" as="targetPoint" />
            <Array as="points" />
          </mxGeometry>
        </mxCell>
        <mxCell id="5TJ3Xv7iPEo6rqyS3TOC-44" value="" style="ellipse;whiteSpace=wrap;html=1;aspect=fixed;" vertex="1" parent="WIyWlLk6GJQsqaUBKTNV-1">
          <mxGeometry x="370" y="990" width="20" height="20" as="geometry" />
        </mxCell>
      </root>
    </mxGraphModel>
  </diagram>
</mxfile>
